<?xml version="1.0" standalone="no"?><svg xmlns:xlink="http://www.w3.org/1999/xlink" xmlns="http://www.w3.org/2000/svg" viewBox="0 0 3600 1800" preserveAspectRatio="xMaxYMax slice"><g transform="scale(3.574265289912629)"><rect x="0" y="0" width="1007.2" height="503.6" fill="#ffffff"/><rect x="0" y="0" width="83.93" height="83.93" fill="#4b69e8"/><polygon points="0,0 83.93,0 83.93,83.93" fill="#3759e5"/><rect x="83.93" y="0" width="83.93" height="83.93" fill="#5d78ea"/><polygon points="83.93,0 167.86,0 83.93,83.93" fill="#d2daf9"/><rect x="167.87" y="0" width="83.93" height="83.93" fill="#dee3fb"/><polygon points="251.8,0 251.8,83.93 167.87,83.93" fill="#7c92ee"/><rect x="251.8" y="0" width="83.93" height="83.93" fill="#c0caf7"/><polygon points="251.8,0 335.73,0 251.8,83.93" fill="#ecf0fd"/><rect x="335.73" y="0" width="83.93" height="83.93" fill="#f7f8fe"/><polygon points="335.73,0 419.66,0 335.73,83.93" fill="#adbbf4"/><rect x="419.67" y="0" width="83.93" height="83.93" fill="#657feb"/><polygon points="419.67,0 503.6,83.93 419.67,83.93" fill="#2247e2"/><rect x="503.6" y="0" width="83.93" height="83.93" fill="#dee4fb"/><polygon points="503.6,0 587.53,0 503.6,83.93" fill="#395ae5"/><rect x="587.53" y="0" width="83.93" height="83.93" fill="#c1cbf7"/><polygon points="587.53,0 671.46,83.93 587.53,83.93" fill="#fefeff"/><rect x="671.47" y="0" width="83.93" height="83.93" fill="#2348e2"/><polygon points="671.47,0 755.4000000000001,83.93 671.47,83.93" fill="#d3daf9"/><rect x="755.4" y="0" width="83.93" height="83.93" fill="#647eeb"/><polygon points="755.4,0 839.3299999999999,0 839.3299999999999,83.93" fill="#cad3f8"/><rect x="839.33" y="0" width="83.93" height="83.93" fill="#2f52e4"/><polygon points="839.33,0 923.26,0 839.33,83.93" fill="#6982ec"/><rect x="923.27" y="0" width="83.93" height="83.93" fill="#c4cef7"/><polygon points="923.27,0 1007.2,83.93 923.27,83.93" fill="#3c5de6"/><rect x="0" y="83.93" width="83.93" height="83.93" fill="#7189ed"/><polygon points="83.93,83.93 83.93,167.86 0,167.86" fill="#3557e5"/><rect x="83.93" y="83.93" width="83.93" height="83.93" fill="#5773e9"/><polygon points="83.93,83.93 167.86,167.86 83.93,167.86" fill="#d9e0fa"/><rect x="167.87" y="83.93" width="83.93" height="83.93" fill="#92a4f1"/><polygon points="167.87,83.93 251.8,83.93 167.87,167.86" fill="#a9b8f4"/><rect x="251.8" y="83.93" width="83.93" height="83.93" fill="#f2f5fd"/><polygon points="335.73,83.93 335.73,167.86 251.8,167.86" fill="#a6b5f3"/><rect x="335.73" y="83.93" width="83.93" height="83.93" fill="#8499ef"/><polygon points="335.73,83.93 419.66,83.93 335.73,167.86" fill="#d3daf9"/><rect x="419.67" y="83.93" width="83.93" height="83.93" fill="#6781eb"/><polygon points="419.67,83.93 503.6,83.93 503.6,167.86" fill="#526fe9"/><rect x="503.6" y="83.93" width="83.93" height="83.93" fill="#f7f9fe"/><polygon points="503.6,83.93 587.53,167.86 503.6,167.86" fill="#b1bef5"/><rect x="587.53" y="83.93" width="83.93" height="83.93" fill="#1940e1"/><polygon points="587.53,83.93 671.46,167.86 587.53,167.86" fill="#91a3f1"/><rect x="671.47" y="83.93" width="83.93" height="83.93" fill="#8398ef"/><polygon points="671.47,83.93 755.4000000000001,83.93 755.4000000000001,167.86" fill="#9aabf2"/><rect x="755.4" y="83.93" width="83.93" height="83.93" fill="#4a69e8"/><polygon points="755.4,83.93 839.3299999999999,167.86 755.4,167.86" fill="#a5b4f3"/><rect x="839.33" y="83.93" width="83.93" height="83.93" fill="#526fe9"/><polygon points="923.26,83.93 923.26,167.86 839.33,167.86" fill="#8499ef"/><rect x="923.27" y="83.93" width="83.93" height="83.93" fill="#f5f7fe"/><polygon points="1007.2,83.93 1007.2,167.86 923.27,167.86" fill="#b9c5f6"/><rect x="0" y="167.87" width="83.93" height="83.93" fill="#395be5"/><polygon points="83.93,167.87 83.93,251.8 0,251.8" fill="#385ae5"/><rect x="83.93" y="167.87" width="83.93" height="83.93" fill="#9aabf2"/><polygon points="167.86,167.87 167.86,251.8 83.93,251.8" fill="#607bea"/><rect x="167.87" y="167.87" width="83.93" height="83.93" fill="#6680eb"/><polygon points="251.8,167.87 251.8,251.8 167.87,251.8" fill="#e9edfc"/><rect x="251.8" y="167.87" width="83.93" height="83.93" fill="#d5dcf9"/><polygon points="251.8,167.87 335.73,167.87 335.73,251.8" fill="#5975ea"/><rect x="335.73" y="167.87" width="83.93" height="83.93" fill="#8398ef"/><polygon points="335.73,167.87 419.66,167.87 419.66,251.8" fill="#748ced"/><rect x="419.67" y="167.87" width="83.93" height="83.93" fill="#6c85ec"/><polygon points="419.67,167.87 503.6,167.87 503.6,251.8" fill="#4161e6"/><rect x="503.6" y="167.87" width="83.93" height="83.93" fill="#8b9ff0"/><polygon points="587.53,167.87 587.53,251.8 503.6,251.8" fill="#94a6f1"/><rect x="587.53" y="167.87" width="83.93" height="83.93" fill="#6982ec"/><polygon points="587.53,167.87 671.46,251.8 587.53,251.8" fill="#96a8f1"/><rect x="671.47" y="167.87" width="83.93" height="83.93" fill="#f8fafe"/><polygon points="671.47,167.87 755.4000000000001,167.87 671.47,251.8" fill="#9cadf2"/><rect x="755.4" y="167.87" width="83.93" height="83.93" fill="#bec9f7"/><polygon points="755.4,167.87 839.3299999999999,167.87 839.3299999999999,251.8" fill="#dae0fa"/><rect x="839.33" y="167.87" width="83.93" height="83.93" fill="#b4c0f5"/><polygon points="923.26,167.87 923.26,251.8 839.33,251.8" fill="#4c6ae8"/><rect x="923.27" y="167.87" width="83.93" height="83.93" fill="#c7d0f8"/><polygon points="1007.2,167.87 1007.2,251.8 923.27,251.8" fill="#fdfdff"/><rect x="0" y="251.8" width="83.93" height="83.93" fill="#758ced"/><polygon points="0,251.8 83.93,251.8 0,335.73" fill="#3e5fe6"/><rect x="83.93" y="251.8" width="83.93" height="83.93" fill="#879cef"/><polygon points="83.93,251.8 167.86,251.8 83.93,335.73" fill="#8ea1f0"/><rect x="167.87" y="251.8" width="83.93" height="83.93" fill="#274ce3"/><polygon points="167.87,251.8 251.8,335.73 167.87,335.73" fill="#899df0"/><rect x="251.8" y="251.8" width="83.93" height="83.93" fill="#7f95ee"/><polygon points="251.8,251.8 335.73,251.8 251.8,335.73" fill="#c4cef7"/><rect x="335.73" y="251.8" width="83.93" height="83.93" fill="#3255e4"/><polygon points="335.73,251.8 419.66,251.8 335.73,335.73" fill="#f4f5fe"/><rect x="419.67" y="251.8" width="83.93" height="83.93" fill="#7e94ee"/><polygon points="419.67,251.8 503.6,251.8 503.6,335.73" fill="#8297ef"/><rect x="503.6" y="251.8" width="83.93" height="83.93" fill="#3a5be5"/><polygon points="503.6,251.8 587.53,251.8 503.6,335.73" fill="#eff2fd"/><rect x="587.53" y="251.8" width="83.93" height="83.93" fill="#5b77ea"/><polygon points="671.46,251.8 671.46,335.73 587.53,335.73" fill="#637deb"/><rect x="671.47" y="251.8" width="83.93" height="83.93" fill="#fbfcfe"/><polygon points="671.47,251.8 755.4000000000001,251.8 755.4000000000001,335.73" fill="#7189ed"/><rect x="755.4" y="251.8" width="83.93" height="83.93" fill="#f0f3fd"/><polygon points="755.4,251.8 839.3299999999999,251.8 839.3299999999999,335.73" fill="#294de3"/><rect x="839.33" y="251.8" width="83.93" height="83.93" fill="#97a9f2"/><polygon points="839.33,251.8 923.26,251.8 839.33,335.73" fill="#c9d2f8"/><rect x="923.27" y="251.8" width="83.93" height="83.93" fill="#3759e5"/><polygon points="923.27,251.8 1007.2,335.73 923.27,335.73" fill="#8398ef"/><rect x="0" y="335.73" width="83.93" height="83.93" fill="#728aed"/><polygon points="0,335.73 83.93,335.73 83.93,419.66" fill="#dce2fa"/><rect x="83.93" y="335.73" width="83.93" height="83.93" fill="#e6eafc"/><polygon points="83.93,335.73 167.86,335.73 83.93,419.66" fill="#c6cff8"/><rect x="167.87" y="335.73" width="83.93" height="83.93" fill="#3a5be5"/><polygon points="167.87,335.73 251.8,335.73 167.87,419.66" fill="#c5cef7"/><rect x="251.8" y="335.73" width="83.93" height="83.93" fill="#728aed"/><polygon points="335.73,335.73 335.73,419.66 251.8,419.66" fill="#f9fafe"/><rect x="335.73" y="335.73" width="83.93" height="83.93" fill="#869aef"/><polygon points="335.73,335.73 419.66,335.73 419.66,419.66" fill="#93a5f1"/><rect x="419.67" y="335.73" width="83.93" height="83.93" fill="#e2e7fb"/><polygon points="419.67,335.73 503.6,419.66 419.67,419.66" fill="#254ae3"/><rect x="503.6" y="335.73" width="83.93" height="83.93" fill="#5370e9"/><polygon points="587.53,335.73 587.53,419.66 503.6,419.66" fill="#7189ed"/><rect x="587.53" y="335.73" width="83.93" height="83.93" fill="#2a4ee3"/><polygon points="587.53,335.73 671.46,335.73 671.46,419.66" fill="#f5f6fe"/><rect x="671.47" y="335.73" width="83.93" height="83.93" fill="#b2bff5"/><polygon points="671.47,335.73 755.4000000000001,419.66 671.47,419.66" fill="#748bed"/><rect x="755.4" y="335.73" width="83.93" height="83.93" fill="#4060e6"/><polygon points="839.3299999999999,335.73 839.3299999999999,419.66 755.4,419.66" fill="#dbe1fa"/><rect x="839.33" y="335.73" width="83.93" height="83.93" fill="#4061e6"/><polygon points="839.33,335.73 923.26,335.73 839.33,419.66" fill="#a8b7f4"/><rect x="923.27" y="335.73" width="83.93" height="83.93" fill="#5d78ea"/><polygon points="1007.2,335.73 1007.2,419.66 923.27,419.66" fill="#879bef"/><rect x="0" y="419.67" width="83.93" height="83.93" fill="#1c42e2"/><polygon points="0,419.67 83.93,419.67 83.93,503.6" fill="#ccd5f8"/><rect x="83.93" y="419.67" width="83.93" height="83.93" fill="#3557e5"/><polygon points="83.93,419.67 167.86,503.6 83.93,503.6" fill="#617cea"/><rect x="167.87" y="419.67" width="83.93" height="83.93" fill="#3a5be5"/><polygon points="167.87,419.67 251.8,503.6 167.87,503.6" fill="#d5dcfa"/><rect x="251.8" y="419.67" width="83.93" height="83.93" fill="#5a76ea"/><polygon points="251.8,419.67 335.73,419.67 251.8,503.6" fill="#869aef"/><rect x="335.73" y="419.67" width="83.93" height="83.93" fill="#5874e9"/><polygon points="419.66,419.67 419.66,503.6 335.73,503.6" fill="#b7c3f6"/><rect x="419.67" y="419.67" width="83.93" height="83.93" fill="#f2f4fd"/><polygon points="419.67,419.67 503.6,503.6 419.67,503.6" fill="#395ae5"/><rect x="503.6" y="419.67" width="83.93" height="83.93" fill="#dee4fb"/><polygon points="503.6,419.67 587.53,419.67 503.6,503.6" fill="#feffff"/><rect x="587.53" y="419.67" width="83.93" height="83.93" fill="#b5c2f5"/><polygon points="587.53,419.67 671.46,503.6 587.53,503.6" fill="#b8c4f6"/><rect x="671.47" y="419.67" width="83.93" height="83.93" fill="#adbbf4"/><polygon points="755.4000000000001,419.67 755.4000000000001,503.6 671.47,503.6" fill="#bac5f6"/><rect x="755.4" y="419.67" width="83.93" height="83.93" fill="#e1e6fb"/><polygon points="755.4,419.67 839.3299999999999,503.6 755.4,503.6" fill="#95a7f1"/><rect x="839.33" y="419.67" width="83.93" height="83.93" fill="#3c5de6"/><polygon points="839.33,419.67 923.26,503.6 839.33,503.6" fill="#183fe1"/><rect x="923.27" y="419.67" width="83.93" height="83.93" fill="#abb9f4"/><polygon points="923.27,419.67 1007.2,419.67 923.27,503.6" fill="#8ea1f0"/></g></svg>